<svg xmlns="http://www.w3.org/2000/svg" xmlns:xlink="http://www.w3.org/1999/xlink" version="1.1" x="0px" y="0px" width="472px" height="462px" viewBox="0 0 472 462" enable-background="new 0 0 472 462" xml:space="preserve"><g><path d="M472 390c0 39.6-32.4 72-72 72H72c-39.6 0-72-32.4-72-72V72C0 32.4 32.4 0 72 0h328c39.6 0 72 32.4 72 72 V390z" class="style0"/></g><path d="M394.172 130.345c0.007-0.012 0.01-0.023 0.016-0.035c0.465-0.959-3.076-0.591-3.603 0.5 c-0.203 0.422-0.379 0.857-0.562 1.287c-14.282 12.435-25.518 28.051-38.067 42.137c-15.846 17.782-34.791 28.493-57.633 34.9 c-15.506 4.361-49.255 8.052-64.02 33.003c-2.923 4.938-5.533 9.876-7.127 15.327c-0.368-3.084-0.815-6.162-1.222-9.246 c-1.426-10.795-1.385-21.764-1.611-32.633c-0.402-19.465-2.077-38.926-3.624-58.328c-1.59-19.939-3.619-39.842-6.463-59.642 c-2.167-15.086-4.563-30.184-10.375-44.363c-10.035-24.481-31.612-38.906-58.297-35.866C116.4 20.3 92.8 34.9 85.9 60.1 c-6.668 24.313-5.669 51.235-3.939 76.164c1.614 23.2 4.1 47.825-2.085 70.642c-0.088 0.098-0.164 0.201-0.207 0.3 c-4.093 10.53-3.369 25.329-1.061 36.198c1.103 5.2 4.2 8.3 9.3 10.061c2.417 0.8 4.455-0.037 6.118-1.514 c3.923 11 10.1 21.5 15.5 31.773c6.611 12.5 13.4 24.9 20.3 37.203c9.134 16.4 18.4 32.9 28.7 48.6 c3.242 7.6 33.7 72.3 106.1 70.045c162.867-4.992 126.707-249.272 125.961-284.664c-0.162-7.681-0.062-16.051 2.961-23.268 c0.356-0.309 0.705-0.626 1.065-0.931C394.952 130.5 394.7 130.4 394.2 130.345z" class="style1"/><g><path d="M171.433 249.332C231.059 97.8 172.5 2.8 122.3 48.171c-22.947 20.739-10.658 59.031-7.758 83.7 c2.396 20.4 7.9 40 13.4 59.738c2.135 7.6 4.3 15.2 6.5 22.827c1.641 5.6 2.1 11.3 1.8 17.1 c-0.338 6.398-1.702 19.099-1.613 20.406c1.818 27 11.4 51.9 16.9 74.418c0.481 2 13.5 45.3 21.8 71.3 c1.811 5.7 5.4 5.7 6.5 9.535l-22.726-97.062C159.115 285.3 162.4 272.3 171.4 249.332z" class="style2"/></g><g><g><g><path d="M229.776 344.254c-5.095-2.048-4.313-9.043-4.075-13.522c0.298-5.602 0.549-11.193 1.045-16.783 c0.703-7.911 1.656-15.791 3.756-23.464c2.154-7.874 5.115-15.533 7.81-23.231c0.34-0.97-4.983-0.382-5.467 1 c-2.867 8.189-5.922 16.33-8.214 24.705c-2.002 7.317-2.722 14.947-3.435 22.478c-0.56 5.925-0.783 11.862-1.1 17.8 c-0.239 4.499-0.539 10.9 4.4 12.884C226.053 346.7 230.2 344.4 229.8 344.254L229.776 344.254z" class="style3"/></g></g><g><g><path d="M225.001 295.546c2.802 12.6 6.1 24.8 9.6 37.145c1.896 6.7 3 13.6 4.8 20.3 c1.693 6.7 3.7 13.5 3.1 20.524c-0.177 2 5.4 0.9 5.523-0.795c0.546-6.128-0.735-12.03-2.199-17.951 c-1.644-6.649-2.965-13.367-4.63-20.009c-1.697-6.772-4.08-13.339-5.859-20.086c-1.797-6.813-3.15-13.74-4.685-20.615 C230.177 292.4 224.6 293.8 225 295.546L225.001 295.546z" class="style3"/></g></g><g><g><path d="M262.283 363.298c-1.873-17.699-3.683-35.438-4.268-53.235c-0.432-13.11 0.113-26.217 0.631-39.315 c0.041-1.018-5.48-0.257-5.549 1.486c-0.505 12.766-1.007 25.526-0.662 38.303c0.488 18.1 2.4 36.2 4.3 54.2 C256.864 366 262.5 364.9 262.3 363.298L262.283 363.298z" class="style3"/></g></g><g><g><path d="M249.12 280.385c6.538 11.7 10 25.7 14.2 38.424c5.795 17.5 11.5 35.2 19 52 c0.932 2.1 6.4 0.4 5.549-1.486c-7.656-17.116-13.404-35.178-19.305-52.966c-4.211-12.691-7.758-26.483-14.298-38.223 C253.284 276.4 247.9 278.2 249.1 280.385L249.12 280.385z" class="style3"/></g></g><g><g><path d="M251.558 342.084c11.229 5 19.7 13 28 21.746c0.998 1 6.122-0.966 5.225-1.906 c-8.381-8.783-16.813-16.751-28.043-21.746C255.273 339.5 250.9 341.8 251.6 342.084L251.558 342.084z" class="style3"/></g></g><g><g><path d="M265.549 276c-0.969 5.4 0.5 10.7 2.1 15.826c2.232 7.2 4.4 14.4 6.5 21.7 c2.141 7.6 4.2 15.2 6.2 22.843c1.809 6.7 5 14.1 3.5 21.132c-0.315 1.5 5.2 0.6 5.494-0.904 c1.224-5.819-0.564-11.43-2.166-17.003c-2.266-7.888-4.265-15.857-6.454-23.768c-1.952-7.053-3.897-14.125-6.106-21.104 c-1.978-6.242-4.806-12.99-3.613-19.653C271.319 273.6 265.8 274.5 265.5 276L265.549 276z" class="style3"/></g></g><g><g><path d="M283.697 326.102c-3.312-13.771-4.989-28.714-5.809-42.843c-1.044 0.785-2.089 1.57-3.133 2.4 c0.092-0.005 0.184-0.01 0.276-0.014c-0.738-0.169-1.476-0.337-2.213-0.506c9.122 8.6 11.8 22.3 16.5 33.4 c4.862 11.4 8.3 24.4 17.4 33.229c1.462 1.4 6.711-0.691 5.143-2.213c-9.769-9.48-14.108-24.719-18.915-37.159 c-2.574-6.66-4.839-13.42-8.076-19.803c-1.755-3.461-4.923-10.392-9.456-10.168c-1.214 0.061-3.218 0.903-3.133 2.4 c0.818 14.1 2.5 29.1 5.8 42.843C278.637 329.6 284.2 328.2 283.7 326.102L283.697 326.102z" class="style3"/></g></g><g><g><path d="M284.684 265.623c10.453 27.8 25.5 55.7 21.1 86.32c-0.272 1.9 5.3 0.9 5.521-0.797 c4.393-30.97-10.523-58.936-21.09-87.01C289.581 262.4 284.1 264.1 284.7 265.623L284.684 265.623z" class="style3"/></g></g><g><g><path d="M316.896 242.646c3.875 7.8 4.2 17.8 4.9 26.373c0.989 13.1 0.7 26.3 1 39.4 c0.05 2.6 5.6 1.6 5.584-0.564c-0.248-13.048-0.099-26.169-0.932-39.194c-0.567-8.867-0.915-19.402-4.932-27.505 C321.378 239 315.9 240.7 316.9 242.646L316.896 242.646z" class="style3"/></g></g><g><g><path d="M322.559 305.333c0.921 28.053-2.093 56.096-1.174 84.149c0.056 1.7 5.6 0.6 5.549-1.486 c-0.918-28.053 2.096-56.096 1.176-84.149C328.053 302.1 322.5 303.2 322.6 305.333L322.559 305.333z" class="style3"/></g></g><g><g><path d="M296.102 262.351c8.214 15 19.9 28 26.3 43.926c0.902 2.2 6.4 0.6 5.549-1.486 c-6.598-16.239-18.396-29.485-26.762-44.748C300.192 258.2 294.8 260 296.1 262.351L296.102 262.351z" class="style3"/></g></g><g><g><path d="M344.914 332.595c-3.695-5.218-4.458-13.488-5.38-19.643c-1.271-8.495-1.636-17.123-2.517-25.664 c-0.819-7.939-1.653-15.862-1.804-23.849c-0.131-6.987 0.796-13.914 1.22-20.874c0.042-0.695-5.454-0.089-5.551 1.5 c-0.386 6.35-1.147 12.657-1.226 19.024c-0.105 8.6 0.9 17.2 1.8 25.699c0.83 8 1.3 15.9 2.3 23.9 c0.819 6.6 1.6 15.8 5.6 21.424C340.294 335.4 345.3 333.1 344.9 332.595L344.914 332.595z" class="style3"/></g></g><g><g><path d="M330.605 248.896c1.993 12.6 8.1 25.1 13.3 36.649c3.055 6.8 7.1 12.5 11 18.8 c4.745 7.6 7.8 16.4 11.1 24.701c0.598 1.5 6.047-0.233 5.551-1.486c-3.144-7.94-6.236-15.938-10.375-23.427 c-3.782-6.845-8.413-12.852-11.708-20.033c-5.281-11.51-11.315-24.067-13.304-36.648 C335.942 246.1 330.4 247.3 330.6 248.896L330.605 248.896z" class="style3"/></g></g><g><g><path d="M329.5 300.414c10.508-0.224 28.3 5.9 31.9 16.939c0.633 2 6.2 0.4 5.551-1.486 c-3.962-12.385-23.521-18.887-35.252-18.637C329.567 297.3 325.8 300.5 329.5 300.414L329.5 300.414z" class="style3"/></g></g></g></svg>